<?xml version="1.0" encoding="UTF-8"?>
<svg id="Capa_1" data-name="Capa 1" xmlns="http://www.w3.org/2000/svg" viewBox="0 0 60 60">
  <defs>
    <style>
      .cls-1 {
        fill: #fff;
      }
    </style>
  </defs>
  <g>
    <path class="cls-1" d="M46.11,47.02c-5.92-9.2-8.9-10.45-8.97-10.52l.14-.15c.07.07,3.07,1.34,9,10.56l-.17.11Z"/>
    <path class="cls-1" d="M46.11,47.55s-.07,0-.11-.01c-.14-.03-.25-.11-.33-.23-5.07-7.87-7.97-9.89-8.74-10.32-.06-.03-.11-.06-.16-.11-.1-.1-.16-.23-.16-.37s.05-.27.15-.37l.14-.15c.1-.1.23-.16.37-.16.11,0,.21.03.3.09h.02c1.06.61,4.07,2.84,9.13,10.71.16.24.09.57-.16.72l-.17.11c-.09.06-.18.08-.28.08ZM37.64,35.97s0,0,0,0c0,0,0,0,0,0ZM37.64,35.97s0,0,0,0c0,0,0,0,0,0Z"/>
  </g>
  <g>
    <path class="cls-1" d="M48.99,46.91c-5.93-9.2-9.98-11.71-10.06-11.78l.14-.15c.07.07,4.15,2.59,10.09,11.82l-.17.11Z"/>
    <path class="cls-1" d="M48.99,47.44s-.07,0-.11-.01c-.14-.03-.25-.11-.33-.23-5.12-7.96-8.84-10.89-9.86-11.59-.06-.04-.08-.06-.12-.09-.1-.1-.16-.23-.16-.37s.05-.27.15-.37l.14-.15c.1-.1.23-.16.37-.16,0,0,0,0,.01,0,.12,0,.23.04.32.11l.03.02c1.06.74,4.94,3.79,10.17,11.92.16.24.09.57-.16.72l-.17.11c-.09.06-.18.08-.28.08Z"/>
  </g>
  <g>
    <path class="cls-1" d="M43.42,33.99h-15.51c-.45,0-.81-.36-.81-.81v-9.45c0-.45.36-.81.81-.81h15.51c.42,0,.77.34.77.77v9.53c0,.42-.34.77-.77.77ZM27.91,23.14c-.33,0-.6.27-.6.6v9.45c0,.33.27.6.6.6h15.51c.31,0,.56-.25.56-.56v-9.53c0-.31-.25-.56-.56-.56h-15.51Z"/>
    <path class="cls-1" d="M43.42,34.52h-15.51c-.73,0-1.33-.6-1.33-1.33v-9.45c0-.73.6-1.33,1.33-1.33h15.51c.71,0,1.29.58,1.29,1.29v9.53c0,.71-.58,1.29-1.29,1.29ZM27.91,23.66s-.08.04-.08.08v9.45s.04.08.08.08h15.51s.04-.02.04-.04v-9.53s-.02-.04-.04-.04h-15.51Z"/>
  </g>
  <g>
    <g>
      <path class="cls-1" d="M11.99,25.01h4.06v.21h-4.06c-.23,0-.42.19-.42.42v5.65c0,.23.19.42.42.42h4.05v.21h-4.05c-.35,0-.63-.28-.63-.63v-5.65c0-.35.28-.63.63-.63Z"/>
      <path class="cls-1" d="M16.04,32.45h-4.05c-.64,0-1.16-.52-1.16-1.16v-5.65c0-.64.52-1.16,1.16-1.16h4.06c.29,0,.52.23.52.52v.21c0,.29-.23.52-.52.52h-3.96v5.45h3.95c.29,0,.52.23.52.52v.21c0,.29-.23.52-.52.52Z"/>
    </g>
    <g>
      <polygon class="cls-1" points="24.87 25.01 24.87 31.92 20.23 31.92 20.23 31.71 24.67 31.71 24.67 25.22 20.15 25.22 20.15 25.01 24.87 25.01"/>
      <path class="cls-1" d="M24.87,32.45h-4.64c-.29,0-.52-.23-.52-.52v-.21c0-.29.23-.52.52-.52h3.91v-5.45h-3.99c-.29,0-.52-.23-.52-.52v-.21c0-.29.23-.52.52-.52h4.72c.29,0,.52.23.52.52v6.92c0,.29-.23.52-.52.52Z"/>
    </g>
  </g>
  <g>
    <path class="cls-1" d="M11.56,31.25h-1.42c-.28,0-.5-.22-.5-.5v-4.58c0-.28.22-.5.5-.5h1.42v5.58ZM10.14,25.88c-.16,0-.29.13-.29.29v4.58c0,.16.13.29.29.29h1.22v-5.17h-1.22Z"/>
    <path class="cls-1" d="M11.56,31.78h-1.42c-.56,0-1.02-.46-1.02-1.02v-4.58c0-.56.46-1.02,1.02-1.02h1.42c.29,0,.52.23.52.52v5.58c0,.29-.23.52-.52.52ZM10.37,30.52h.46v-4.12h-.46v4.12Z"/>
  </g>
  <g>
    <path class="cls-1" d="M9.85,30.43l-2.19-1.05v-1.84l2.19-1.05v3.94ZM7.87,29.29l1.77.69v-3.03l-1.77.69v1.65Z"/>
    <path class="cls-1" d="M9.85,30.96c-.08,0-.15-.02-.23-.05l-2.19-1.05c-.18-.09-.3-.27-.3-.47v-1.84c0-.2.12-.38.3-.47l2.19-1.05c.16-.08.35-.07.51.03.15.1.24.26.24.44v3.94c0,.18-.09.35-.24.44-.08.05-.18.08-.28.08ZM8.39,28.93l.73.28v-1.5l-.73.28v.93Z"/>
  </g>
  <g>
    <path class="cls-1" d="M7.84,28.94h-.95v-.95h.95v.95ZM7.1,28.73h.53v-.53h-.53v.53Z"/>
    <rect class="cls-1" x="6.37" y="27.47" width="2" height="2" rx=".52" ry=".52"/>
  </g>
  <g>
    <path class="cls-1" d="M19.88,29.83h-3.51c-.24,0-.43-.19-.43-.43v-1.91c0-.24.19-.43.43-.43h3.51c.24,0,.44.2.44.44v1.89c0,.24-.2.44-.44.44ZM16.37,27.26c-.12,0-.23.1-.23.23v1.91c0,.12.1.23.23.23h3.51c.13,0,.24-.11.24-.24v-1.89c0-.13-.11-.24-.24-.24h-3.51Z"/>
    <path class="cls-1" d="M19.88,30.35h-3.51c-.53,0-.96-.43-.96-.96v-1.91c0-.53.43-.96.96-.96h3.51c.53,0,.97.43.97.97v1.89c0,.53-.43.97-.97.97ZM16.66,29.1h2.93v-1.32h-2.93v1.32Z"/>
  </g>
  <g>
    <path class="cls-1" d="M44.31,33.26h-.33v-9.57h.33c.55,0,1.77.44,1.77.99v7.59c0,.55-1.22.99-1.77.99ZM44.19,33.05h.13c.43,0,1.56-.35,1.56-.78v-7.59c0-.43-1.13-.78-1.56-.78h-.13v9.16Z"/>
    <path class="cls-1" d="M44.31,33.78h-.33c-.29,0-.52-.23-.52-.52v-9.57c0-.29.23-.52.52-.52h.33c.68,0,2.29.51,2.29,1.51v7.59c0,1-1.6,1.51-2.29,1.51ZM44.71,24.49v7.97c.26-.07.53-.19.64-.28v-7.41c-.11-.09-.38-.21-.64-.28Z"/>
  </g>
  <g>
    <path class="cls-1" d="M27.31,33.2l-2.64-1.33v-6.82l2.64-1.33v9.47ZM24.88,31.76l2.22,1.05v-8.69l-2.22,1.05v6.6Z"/>
    <path class="cls-1" d="M27.31,33.72c-.08,0-.16-.02-.24-.06l-2.64-1.33c-.18-.09-.29-.27-.29-.47v-6.82c0-.2.11-.38.29-.47l2.64-1.33c.16-.08.36-.07.51.02.15.1.25.26.25.45v9.47c0,.18-.09.35-.25.45-.08.05-.18.08-.27.08ZM25.4,31.43l1.18.56v-7.04l-1.18.56v5.93Z"/>
  </g>
  <g>
    <path class="cls-1" d="M45.87,31.61v-6.44l.21-.02,2.79,6.41-2.99.05ZM46.08,26.27v5.13l2.54-.03-2.54-5.09Z"/>
    <path class="cls-1" d="M45.87,32.13c-.14,0-.27-.05-.37-.15-.1-.1-.16-.23-.16-.37v-6.44c0-.27.21-.5.47-.52l.21-.02c.23-.02.44.1.53.31l2.79,6.41c.07.16.05.34-.04.49s-.26.24-.43.24l-2.99.05h0ZM46.6,28.5v2.37h1.17s-1.17-2.37-1.17-2.37Z"/>
  </g>
  <g>
    <path class="cls-1" d="M19.79,32.95h-3.32c-.3,0-.54-.24-.54-.54v-.87c0-.14.11-.25.25-.25h3.9c.14,0,.25.11.25.25v.87c0,.3-.24.54-.54.54ZM16.18,31.5s-.04.02-.04.04v.87c0,.18.15.33.33.33h3.32c.18,0,.33-.15.33-.33v-.87s-.02-.04-.04-.04h-3.9Z"/>
    <path class="cls-1" d="M19.79,33.47h-3.32c-.59,0-1.06-.48-1.06-1.06v-.87c0-.43.35-.77.77-.77h3.9c.43,0,.77.35.77.77v.87c0,.59-.48,1.06-1.06,1.06ZM16.66,32.21h2.94v-.19h-2.94v.19Z"/>
  </g>
  <g>
    <path class="cls-1" d="M16.47,23.94h3.32c.3,0,.54.24.54.54v.87c0,.14-.11.25-.25.25h-3.9c-.14,0-.25-.11-.25-.25v-.87c0-.3.24-.54.54-.54ZM20.09,25.39s.04-.02.04-.04v-.87c0-.18-.15-.33-.33-.33h-3.32c-.18,0-.33.15-.33.33v.87s.02.04.04.04h3.9Z"/>
    <path class="cls-1" d="M20.09,26.12h-3.9c-.43,0-.77-.35-.77-.77v-.87c0-.59.48-1.06,1.06-1.06h3.32c.59,0,1.06.48,1.06,1.06v.87c0,.43-.35.77-.77.77ZM16.66,24.86h2.94v-.19h-2.94v.19Z"/>
  </g>
  <g>
    <path class="cls-1" d="M35.52,37.64l-.05-.09c-1.31-2.39-2.79-3.56-2.8-3.57l-.24-.19h8.35l-.2.18c-2.59,2.31-4.94,3.61-4.97,3.62l-.09.05ZM33.01,33.99c.46.42,1.57,1.53,2.59,3.36.44-.25,2.43-1.42,4.63-3.36h-7.22Z"/>
    <path class="cls-1" d="M35.52,38.16c-.18,0-.36-.1-.46-.27l-.05-.09c-1.24-2.26-2.61-3.37-2.67-3.42l-.23-.18c-.18-.14-.24-.37-.17-.58s.27-.35.49-.35h8.35c.22,0,.41.13.49.34.08.2.02.43-.14.58l-.2.18c-2.59,2.31-4.96,3.63-5.06,3.69l-.09.05c-.08.04-.17.06-.25.06ZM34.25,34.52c.45.52,1,1.23,1.54,2.12.61-.38,1.72-1.1,3.01-2.12h-4.55Z"/>
  </g>
  <g>
    <path class="cls-1" d="M29.59,29.21c-.41,0-.74-.33-.74-.74s.33-.74.74-.74.74.33.74.74-.33.74-.74.74ZM29.59,27.93c-.3,0-.54.24-.54.54s.24.54.54.54.54-.24.54-.54-.24-.54-.54-.54Z"/>
    <path class="cls-1" d="M29.59,29.73c-.7,0-1.27-.57-1.27-1.27s.57-1.27,1.27-1.27,1.27.57,1.27,1.27-.57,1.27-1.27,1.27ZM29.59,28.45s-.01,0-.01.01c0,.01.03.01.03,0,0,0,0-.01-.01-.01Z"/>
  </g>
</svg>