<?xml version="1.0" encoding="UTF-8"?>
<svg id="Capa_1" data-name="Capa 1" xmlns="http://www.w3.org/2000/svg" viewBox="0 0 60 60">
  <defs>
    <style>
      .cls-1 {
        fill: #fff;
      }
    </style>
  </defs>
  <path class="cls-1" d="M42.96,22.36c-2.76,0-5-2.24-5-5s2.24-5,5-5,5,2.24,5,5-2.24,5-5,5ZM42.96,13.34c-2.22,0-4.03,1.81-4.03,4.03s1.81,4.03,4.03,4.03,4.03-1.81,4.03-4.03-1.81-4.03-4.03-4.03Z"/>
  <path class="cls-1" d="M44.76,17.85h-3.59c-.27,0-.49-.22-.49-.49s.22-.49.49-.49h3.59c.27,0,.49.22.49.49s-.22.49-.49.49Z"/>
  <path class="cls-1" d="M15.18,48.14c-2.76,0-5-2.24-5-5s2.24-5,5-5,5,2.24,5,5-2.24,5-5,5ZM15.18,39.11c-2.22,0-4.03,1.81-4.03,4.03s1.81,4.03,4.03,4.03,4.03-1.81,4.03-4.03-1.81-4.03-4.03-4.03Z"/>
  <path class="cls-1" d="M16.97,43.63h-3.59c-.27,0-.49-.22-.49-.49s.22-.49.49-.49h3.59c.27,0,.49.22.49.49s-.22.49-.49.49Z"/>
  <path class="cls-1" d="M15.18,45.42c-.27,0-.49-.22-.49-.49v-3.59c0-.27.22-.49.49-.49s.49.22.49.49v3.59c0,.27-.22.49-.49.49Z"/>
  <path class="cls-1" d="M18.33,40.2c-.08,0-.17-.02-.25-.07-.21-.12-.3-.39-.2-.61l5.38-12.27c.08-.17.25-.29.44-.29.19,0,.36.1.45.28l1.84,3.84,4.84-9.33c.08-.16.25-.26.44-.26.18,0,.35.11.43.27l1.92,3.92,4.9-6.37c.15-.19.42-.25.63-.12.21.12.3.38.21.61l-5.38,13.03c-.07.18-.24.29-.43.3-.19,0-.37-.1-.45-.26l-2.03-3.98-4.85,9.18c-.08.16-.25.26-.43.26h0c-.18,0-.35-.1-.43-.26l-2.1-4.04-4.54,6c-.09.13-.24.19-.39.19ZM23.34,32.62s.03,0,.04,0c.17.01.31.11.39.26l2.03,3.9,4.85-9.19c.08-.16.25-.26.43-.26h0c.18,0,.35.1.43.26l1.98,3.88,3.59-8.68-3.16,4.1c-.1.13-.27.2-.43.19-.17-.02-.31-.12-.39-.27l-1.84-3.76-4.84,9.34c-.08.16-.25.26-.44.26-.18,0-.35-.11-.43-.28l-1.81-3.77-3.3,7.54,2.52-3.33c.09-.12.24-.19.39-.19Z"/>
</svg>