<?xml version="1.0" encoding="UTF-8"?>
<svg id="Capa_1" data-name="Capa 1" xmlns="http://www.w3.org/2000/svg" viewBox="0 0 64 64">
  <defs>
    <style>
      .cls-1 {
        fill: #f4f4f4;
      }
    </style>
  </defs>
  <path class="cls-1" d="M34.21,56.27c-.43.02-1.08.06-1.3-.07,0-.04,0-.16,0-.25.01-.18.02-.41-.02-.67-.43-2.48-2.31-3.02-3.97-3.49-.47-.13-.96-.27-1.41-.45-.44-.18-.89-.42-1.37-.69-1.39-.76-2.96-1.62-4.71-.82-.5.23-.83.56-1.07.81-.1.1-.23.23-.24.25,0,0-.15-.02-.53-.33-.46-.38-2.68-2.64-3.04-3.15-.01-.06,0-.09-.01-.09.02-.04.12-.13.19-.19.15-.14.31-.29.45-.48,1.44-1.92.4-3.85-.43-5.39-.25-.47-.49-.91-.67-1.34-.18-.45-.33-.94-.46-1.42-.48-1.65-1.02-3.52-3.49-3.95-.25-.04-.49-.05-.7-.05-.08,0-.18,0-.24,0-.02-.05-.04-.15-.05-.3-.1-1.08-.12-3.61,0-4.54,0-.07.02-.1.02-.1.09-.06.46-.08.68-.1.37-.02.78-.04,1.18-.18,1.67-.6,2.26-2.52,2.78-4.22.17-.56.33-1.08.51-1.5.16-.37.37-.74.57-1.1.77-1.4,1.73-3.13.29-5.05-.15-.2-.31-.35-.46-.49-.07-.07-.17-.16-.18-.18,0,0,0-.04.02-.14.43-.54,2.86-3.01,3.19-3.26q.32-.23.74.17c.29.28.65.62,1.17.81,1.67.6,3.01-.15,4.2-.81.36-.2.72-.4,1.09-.56.38-.17.92-.34,1.5-.52,1.46-.46,2.97-.95,3.65-1.8.69-.87.73-1.54.77-2.18.01-.19.02-.4.02-.6.17-.12.92-.08,1.32-.06.92.05,1.88.1,2.44-.52.61-.67.61-1.71,0-2.38-.3-.32-.77-.48-1.08-.52-1.75-.21-4.1-.16-5.3,1.29-.65.78-.71,1.5-.76,2.07-.02.26-.04.49-.11.73-.26.09-.51.17-.77.26-1.07.35-2.17.72-3.24,1.19-.21.09-.5.25-.81.42-.41.23-1.35.75-1.7.76-.06-.05-.12-.13-.2-.2-.23-.24-.52-.53-.85-.71-1.19-.65-2.77-.56-3.85.22-.78.56-3.55,3.36-4.13,4.12-.95,1.24-.95,3.04,0,4.37.17.25.36.41.5.53.06.05.13.11.14.13,0,0,.01.05,0,.16-.05.2-.44.89-.67,1.3-.22.4-.43.77-.53,1-.25.56-.52,1.24-.81,2.02-.08.21-.17.55-.26.9-.09.35-.26,1.01-.32,1.14-.05.01-.2,0-.29,0-.17-.02-.36-.03-.57,0-1.85.25-3.11,1.52-3.29,3.33-.14,1.34-.11,3.94,0,5.19.13,1.49,1.16,3.13,2.88,3.37.22.03.44.03.67.02.28,0,.44,0,.55.04.13.37.25.74.37,1.11.25.77.51,1.57.83,2.34.15.35.41.85.7,1.37.26.47.68,1.26.73,1.47q.05.22-.19.44c-.16.15-.36.34-.55.62-.88,1.34-.81,2.97.19,4.26.71.92,3,3.18,3.85,3.86,1.37,1.09,3,1.13,4.47.12.15-.1.3-.24.46-.39.09-.09.24-.23.33-.29.31.13,1.05.53,1.52.78.59.31,1.09.58,1.37.7.33.14.92.32,1.6.53.65.2,1.75.54,1.91.62.07.11.08.51.09.75,0,.3.02.62.09.91.2.78.95,1.69,1.71,2.06.46.23,1.72.51,2.94.51.94,0,1.86-.17,2.39-.67.49-.46.6-1.12.31-1.82-.46-1.12-1.78-1.05-2.74-1Z"/>
  <path class="cls-1" d="M36.19,44.55l-.26-.04c-.45-.07-.9-.13-1.34-.18-.75-.09-1.46-.18-2.16-.34-6.68-1.56-9.5-7.33-9.34-12.36.15-4.69,2.96-10.59,10.37-11.81.19-.03.43-.04.69-.06,1.06-.06,2.51-.13,2.88-1.33.23-.73.02-1.22-.2-1.5-.66-.83-2.09-.74-2.86-.69-3.36.22-7.18,2.03-9.75,4.59-4.42,4.42-5.75,10.9-3.46,16.92,2.22,5.84,7.33,9.68,13.34,10.04.19.01.36.02.53.02,1.28,0,2.06-.32,2.36-.96.29-.6.08-1.31-.63-2.09l-.18-.2Z"/>
  <path class="cls-1" d="M55.83,41.87c-.9-1.78-2.77-2.75-4.78-2.5-1.74.22-3.14,1.34-3.71,2.91h-1.93v-1.47c0-.93-1.18-1.46-1.81-1.53-1.38-.16-2.91-.09-4.38-.02-1.25.06-2.54.11-3.69.03h-.07s-.07,0-.07,0c-.66.07-1.25.46-1.53,1.02-.26.5-.23,1.08.06,1.58.06.1.61.81,1.18.81h6.88v1.59c0,.54.68,1.09.68,1.09.58.41,1.59.39,3.18.32.48-.02,1-.04,1.37-.03.49.95,1,1.84,2.19,2.47.72.39,1.5.57,2.26.57,1.19,0,2.35-.46,3.26-1.35,1.49-1.46,1.85-3.62.9-5.5ZM52.71,44.68c-.18.38-.5.59-.95.62-1.14.07-1.3-.96-1.31-1.17-.04-.49.15-1.33,1.1-1.4.05,0,.09,0,.13,0,.41,0,.72.16.93.46.29.42.33,1.03.1,1.49Z"/>
  <path class="cls-1" d="M33.74,22.78c-.11.87.36,1.6,1.18,1.82l8.79.03c.46.05.87-.21,1.09-.39.28-.22.62-.58.62-1.03v-1.47h1.93c.54,1.49,1.84,2.56,3.51,2.85.28.05.56.07.83.07,1.61,0,3.09-.8,3.93-2.16,1.16-1.88.95-4.13-.54-5.71-1.49-1.59-3.72-1.96-5.68-.93-1.16.61-1.68,1.56-2.17,2.49-.48.03-1.05,0-1.6-.04-.82-.05-1.66-.11-2.37.03-.32.06-1.27.66-1.27,1.28v1.59h-6.64c-.8,0-1.49.68-1.61,1.58ZM50.79,19.12c.09-.1.44-.43.9-.43.25,0,.53.09.82.37.35.33.48.7.38,1.1-.11.48-.53.92-1.02,1.07-.41.12-.78.02-1.12-.3-.7-.67-.29-1.48.03-1.81Z"/>
  <path class="cls-1" d="M54.34,28.16c-1.8-1.26-4.06-1.15-5.77.28-.61.51-.9,1.07-1.18,1.62-.04.08-.08.15-.12.23l-12.04.02h-.1c-.6.09-1.11.53-1.32,1.14-.21.64-.07,1.33.37,1.78h0c.36.36,1.04.5,1.39.5h11.7c.05.1.09.19.13.27.18.36.38.77.72,1.15.9,1,2.15,1.54,3.47,1.54.31,0,.63-.03.95-.09,1.63-.32,2.93-1.44,3.48-2.98.75-2.08.08-4.22-1.7-5.46ZM52.24,33.11c-.5.27-.93.27-1.27,0-.42-.33-.64-1.01-.5-1.55.12-.46.46-.73,1-.82.73-.11,1.16.39,1.32.85.17.49.11,1.15-.56,1.51Z"/>
</svg>