<?xml version="1.0" encoding="UTF-8"?>
<svg id="Capa_1" data-name="Capa 1" xmlns="http://www.w3.org/2000/svg" viewBox="0 0 64 64">
  <defs>
    <style>
      .cls-1 {
        fill: #f4f4f4;
      }
    </style>
  </defs>
  <path class="cls-1" d="M33.99,19.47v8.57h4.66c1.03,0,2.53,1.36,2.94,2.27.49,1.09.47,4.82.35,6.11-.2,2.06-1.83,3.23-3.73,3.61l1.74,17.24c.37,2.71-3.13,3.58-3.92.94l-1.79-18.26h-4.47l-1.79,18.38c-.8,2.39-4,1.74-3.92-.81l1.75-17.49c-1.59-.36-2.94-1.11-3.51-2.72-.37-1.04-.37-5.59,0-6.63.41-1.16,1.91-2.65,3.19-2.65h4.53v-8.5c-3.45-1.99-2.09-7.35,1.92-7.4s5.57,5.36,2.05,7.33ZM37.97,32h-11.92v3.97h11.92v-3.97Z"/>
  <path class="cls-1" d="M16.7,4.23c1.29-.26,2.41.72,2.4,2.02,0,.83-.59,1.35-.94,2.05-2.33,4.55-2.85,9.18-.83,13.99.35.83,1.7,2.83,1.76,3.45.16,1.53-1.19,2.69-2.68,2.18-.78-.27-1.42-1.46-1.82-2.16-3.05-5.45-3.27-12.2-.71-17.88.49-1.08,1.58-3.4,2.8-3.65Z"/>
  <path class="cls-1" d="M46.5,4.23c1.68-.27,2.41,1.32,3.08,2.57,3.03,5.73,3.04,12.6.12,18.38-.73,1.45-2.01,3.88-3.98,2.48s.12-3.53.79-5.05c1.83-4.1,1.84-8.8.04-12.91-.53-1.2-1.83-2.66-1.63-3.94.11-.69.89-1.42,1.57-1.53Z"/>
  <path class="cls-1" d="M23.66,8.2c.85-.15,1.67.19,2.12.92.9,1.46-.36,2.35-.92,3.51-.92,1.91-1.03,3.97-.39,5.99.51,1.61,2.83,3.61.77,5.06-1.64,1.16-2.81-.35-3.56-1.66-2.15-3.76-2.14-8.18.05-11.91.42-.73,1.04-1.76,1.93-1.92Z"/>
  <path class="cls-1" d="M39.55,8.2c1.42-.22,2.12.85,2.74,1.92,2.19,3.75,2.19,8.25,0,11.99-.76,1.3-1.89,2.71-3.51,1.58-2.06-1.44.27-3.46.77-5.06.63-2,.52-4.1-.39-5.99-.5-1.04-1.38-1.58-1.18-2.9.11-.68.89-1.42,1.57-1.53Z"/>
</svg>