<?xml version="1.0" encoding="UTF-8"?>
<svg id="Capa_1" data-name="Capa 1" xmlns="http://www.w3.org/2000/svg" viewBox="0 0 60 60">
  <defs>
    <style>
      .cls-1 {
        fill: #fff;
      }
    </style>
  </defs>
  <path class="cls-1" d="M14.51,21.88c.37-.11.85-.03,1.14.23l10.8,10.77,2.58-2.46c.14-.31-.17-.71-.2-1.1-.25-2.76,3.35-4.3,5.13-2.15,1.66,2.01.07,5.04-2.47,4.81-.38-.04-.79-.34-1.1-.2l-2.46,2.58,10.97,11.11c.28.73-.31,1.63-1.12,1.38-.48-.15-1.27-1.39-1.6-1.36-2.41,1.97-5.44,3.51-8.6,3.75-12.35.92-20.39-12.47-13.55-22.9.19-.3,1.23-1.49,1.26-1.61.16-.6-1.82-1.16-1.32-2.34.07-.17.34-.47.51-.53ZM17.36,26.57c-.75-.87-1.12.06-1.57.74-7.28,11.11,5.25,24.62,16.89,18.19.39-.21,1.77-1.1,1.99-1.38.11-.14.19-.11,0-.26l-17.32-17.29ZM32.44,28.38c-.92-.92-2.32.51-1.33,1.39s2.2-.53,1.33-1.39Z"/>
  <path class="cls-1" d="M31.78,10.73c4.68-.32,10.39,2.55,13.49,5.93,2.75,2.99,5.11,8.27,4.83,12.39-.07.98-1.38,1.38-1.88.38-.31-.63-.09-1.38-.16-2.05-.86-7.73-6.88-13.75-14.61-14.61-.8-.09-2.15.28-2.56-.69-.27-.62.26-1.31.89-1.35Z"/>
  <path class="cls-1" d="M44.64,29.74c-.13.13-.61.31-.8.3-1.11-.06-.88-1.97-1.02-2.76-.8-4.45-4.08-8.13-8.53-9.13-.71-.16-2.62-.23-3.04-.47-.81-.45-.47-1.61.4-1.77.67-.12,2.18.14,2.9.29,4.99,1.03,9.09,5.18,10.09,10.17.15.76.55,2.82,0,3.37Z"/>
  <path class="cls-1" d="M31.53,21.1c.87-.2,2.44.23,3.28.56,2.14.84,3.92,2.82,4.58,5.03.25.84.82,2.94-.29,3.29-1.53.48-1.29-1.69-1.54-2.63-.49-1.77-2.05-3.41-3.79-4-.81-.27-1.52-.2-2.24-.36-.98-.22-.98-1.67,0-1.89Z"/>
</svg>