<?xml version="1.0" encoding="UTF-8"?>
<svg id="Capa_2" data-name="Capa 2" xmlns="http://www.w3.org/2000/svg" viewBox="0 0 64 64">
  <defs>
    <style>
      .cls-1 {
        fill: #f4f4f4;
      }
    </style>
  </defs>
  <path class="cls-1" d="M59.59,30.37c-.03-.6-.13-1.3-.21-1.92l-.02-.17c-.56-4.2-2.16-8.33-4.65-11.99.02-.04.04-.08.06-.12.16-.31.33-.66.44-1.1.46-1.83-.04-3.69-1.33-4.98-1.29-1.29-3.15-1.79-4.99-1.33-.44.11-.79.29-1.1.44l-.13.07-.23-.15c-.61-.4-1.24-.82-1.9-1.19-8.35-4.71-18.73-4.71-27.11,0-.43.24-1.43.8-2.11,1.35-1.75,1.25-5.04,3.87-7.4,7.49l-.09.14c-.52.78-1.2,2.03-1.41,2.44-4.63,9-3.9,20.07,1.84,28.35-.01.02-.03.05-.04.07-.11.19-.21.37-.26.5-.76,2.01-.33,4.17,1.11,5.62s3.6,1.88,5.62,1.12c.12-.05.31-.15.5-.26l.07-.04c3.67,2.5,7.82,4.1,12.01,4.66l.17.02c.62.08,1.32.17,1.92.21.27.01.54.02.8.02.32,0,.65,0,.96-.01.5-.01,1-.02,1.5,0h.11s.11-.02.11-.02c.32-.08.69-.11,1.09-.14.25-.02.5-.04.74-.07,12.11-1.58,22.07-11.54,23.68-23.67.03-.25.05-.5.07-.76.03-.39.05-.76.14-1.07l.03-.1v-3.39ZM25.94,42.38h9.34c.36,1.06,1.16,2,2.27,2.66-.48,2.46-1.01,4.32-1.67,5.99-1.21,3.01-2.58,4.81-3.77,4.92-.99.08-1.95-1.06-2.58-2.04h0c-2.15-3.36-2.98-7.79-3.59-11.53ZM17.42,46.63c-1.07-1.1-2.58-1.66-4.11-1.54-.37.03-.71.13-1,.22-.08.02-.16.05-.24.07-.73-1.04-1.3-2.03-1.73-2.99h11.98c.64,4.42,1.6,8.97,3.86,12.89-.44-.1-.84-.21-1.01-.26-1.47-.42-3.12-1.1-4.54-1.86-.89-.47-1.74-.98-2.08-1.23.02-.05.04-.11.06-.17.11-.31.23-.67.26-.99.15-1.53-.38-3.04-1.46-4.14ZM12.65,49.15c.41-.41,1.34-.88,2.2-.02.53.53.53,1.06.43,1.41-.15.58-.66,1.09-1.24,1.24-.35.09-.89.1-1.42-.43-.86-.86-.39-1.78.02-2.2ZM46.56,17.34c1.07,1.1,2.57,1.65,4.11,1.54.37-.03.71-.13,1-.22.08-.02.16-.05.24-.07.73,1.05,1.3,2.03,1.73,2.99h-11.98c-.64-4.42-1.6-8.97-3.86-12.89.44.1.84.21,1.01.26,1.46.42,3.12,1.1,4.54,1.86.99.53,1.76,1,2.08,1.23-.02.06-.04.11-.06.18-.11.31-.23.67-.26.98-.15,1.53.38,3.04,1.46,4.14ZM51.35,14.85c-.79.79-1.67.49-2.18-.02-.42-.41-.9-1.34-.07-2.2.52-.54,1.05-.54,1.41-.45.59.15,1.12.66,1.28,1.24.14.5-.01.99-.44,1.42ZM41.33,41.57c-.32.48-.86.67-1.56.54-.9-.16-1.21-.93-1.2-1.54,0-.62.35-1.39,1.26-1.51.69-.1,1.23.11,1.53.6.35.55.33,1.38-.03,1.92ZM25.24,29.32c.01-.33.02-.67.03-1,1.25-.33,2.36-1.21,3.05-2.43.07-.12.14-.31.22-.53.02-.05.04-.1.06-.16l9.91.03c.05.52.11,1.54.16,3.49v.41c.02.15.05.29.08.44.02.07.03.14.04.18.05,1.58,0,3.2-.06,4.77-.01.38-.02.75-.04,1.12-1.5.37-2.81,1.56-3.43,3.15l-9.81-.05c-.05-.51-.1-1.5-.16-3.38v-.42c-.02-.15-.05-.29-.09-.44-.02-.07-.03-.14-.04-.18-.05-1.66,0-3.36.06-5.01ZM22.25,23.11c.15-.59.66-1.12,1.24-1.28.12-.03.24-.05.36-.05.38,0,.74.17,1.06.49.79.79.49,1.67-.01,2.18-.41.42-1.34.91-2.2.07-.54-.52-.54-1.05-.45-1.41ZM38.03,21.59h-9.37c-.53-1.19-1.25-2.05-2.25-2.66.44-2.31.99-4.28,1.68-5.99,1.2-3.01,2.57-4.81,3.77-4.92.99-.11,1.95,1.06,2.58,2.04,2.13,3.34,2.97,7.78,3.59,11.53ZM22.84,18.31c-1.6.36-2.79,1.22-3.55,2.58-.11.2-.19.4-.26.6-.01.04-.03.07-.04.1h-8.66c.13-.3.28-.59.44-.89.09-.18.28-.47.5-.8.26-.4.55-.85.73-1.18.27-.42,2.7-4.17,6.42-6.5.35-.21.76-.48,1.15-.73.43-.28.83-.55,1.05-.66,1.8-.96,3.68-1.68,5.52-2.11-1.75,3.09-2.63,6.52-3.3,9.6ZM21.5,27.98c.06.03.11.06.17.09l-.09,6.32.27,4.39h-12.91c-1.28-4.44-1.29-9.1-.01-13.54h10.06c.39.93.9,1.63,1.59,2.17.3.24.62.4.92.56ZM41.13,45.66c1.79-.42,3.18-1.63,3.79-3.27h8.68c-2.77,5.84-8.2,10.58-14.41,12.51-.21.07-.79.22-1.37.37,1.69-2.92,2.55-6.21,3.31-9.61ZM42.56,36.08c-.09-.05-.18-.09-.26-.14l.09-6.37-.27-4.39h12.91c1.29,4.46,1.29,9.13,0,13.59h-10.11c-.3-.76-.81-1.64-1.68-2.29-.23-.18-.47-.3-.67-.4Z"/>
</svg>