<?xml version="1.0" encoding="UTF-8"?>
<svg id="Capa_1" data-name="Capa 1" xmlns="http://www.w3.org/2000/svg" viewBox="0 0 60 60">
  <defs>
    <style>
      .cls-1 {
        fill: #fff;
      }
    </style>
  </defs>
  <g>
    <path class="cls-1" d="M30.83,44.84c-.92,0-1.85-.22-2.49-.66L5.2,28.33h-.01c-.29-.28-.44-.69-.39-1.1.05-.41.28-.76.63-.95l21.86-11.86c.75-.41,1.69-.41,2.44,0l24.95,13.66c.53.29.87.8.91,1.38.04.58-.21,1.11-.69,1.48h-.02s-22.04,13.46-22.04,13.46h0c-.57.29-1.29.44-2.02.44ZM5.46,28.01l23.1,15.83c1.03.69,2.94.79,4.08.2l22.02-13.43c.36-.28.55-.68.52-1.11-.03-.44-.29-.82-.7-1.04l-24.95-13.66c-.63-.34-1.41-.34-2.04,0L5.63,26.65c-.22.12-.38.36-.41.63-.03.28.06.55.25.72Z"/>
    <path class="cls-1" d="M30.83,45.4c-1.07,0-2.09-.27-2.8-.75L4.89,28.79s-.04-.03-.06-.05c0,0-.01-.01-.01-.01-.43-.39-.64-.98-.57-1.57.07-.59.41-1.1.91-1.37l21.86-11.86c.92-.5,2.06-.5,2.97,0l24.95,13.66c.7.38,1.14,1.06,1.2,1.82.06.77-.28,1.48-.91,1.96,0,0-.01.01-.02.02h-.02s-.02.02-.02.03l-22.04,13.45s-.02.01-.04.02c-.63.32-1.43.5-2.28.5ZM5.82,27.58l23.05,15.8c.86.58,2.52.66,3.5.18l21.97-13.4c.2-.16.3-.38.28-.61-.02-.25-.16-.46-.41-.6l-24.95-13.66c-.46-.25-1.04-.25-1.51,0L5.89,27.14c-.07.04-.11.12-.13.21-.01.09.01.17.06.23Z"/>
  </g>
  <g>
    <path class="cls-1" d="M33.95,40.1c-.48,0-.87-.24-.87-.54s.39-.54.87-.54.87.24.87.54-.39.54-.87.54ZM33.95,39.1c-.43,0-.79.21-.79.46s.35.46.79.46.79-.21.79-.46-.35-.46-.79-.46Z"/>
    <path class="cls-1" d="M33.95,40.65c-.8,0-1.42-.48-1.42-1.1s.63-1.1,1.42-1.1,1.42.48,1.42,1.1-.63,1.1-1.42,1.1Z"/>
  </g>
  <g>
    <path class="cls-1" d="M49.43,30.8c-.48,0-.87-.24-.87-.54s.39-.54.87-.54.87.24.87.54-.39.54-.87.54ZM49.43,29.8c-.43,0-.79.21-.79.46s.35.46.79.46.79-.21.79-.46-.35-.46-.79-.46Z"/>
    <path class="cls-1" d="M49.43,31.35c-.8,0-1.42-.48-1.42-1.1s.63-1.1,1.42-1.1,1.42.48,1.42,1.1-.63,1.1-1.42,1.1Z"/>
  </g>
  <g>
    <path class="cls-1" d="M12.67,26.51c-.48,0-.87-.24-.87-.54s.39-.54.87-.54.87.24.87.54-.39.54-.87.54ZM12.67,25.51c-.43,0-.79.21-.79.46s.35.46.79.46.79-.21.79-.46-.35-.46-.79-.46Z"/>
    <path class="cls-1" d="M12.67,27.07c-.8,0-1.42-.48-1.42-1.1s.63-1.1,1.42-1.1,1.42.48,1.42,1.1-.63,1.1-1.42,1.1Z"/>
  </g>
  <g>
    <path class="cls-1" d="M27.02,18.73c-.48,0-.87-.24-.87-.54s.39-.54.87-.54.87.24.87.54-.39.54-.87.54ZM27.02,17.73c-.43,0-.79.21-.79.46s.35.46.79.46.79-.21.79-.46-.35-.46-.79-.46Z"/>
    <path class="cls-1" d="M27.02,19.29c-.8,0-1.42-.48-1.42-1.1s.63-1.1,1.42-1.1,1.42.48,1.42,1.1-.63,1.1-1.42,1.1Z"/>
  </g>
  <path class="cls-1" d="M37.98,28.5s-.54-.15-.92.08c-.41.25-.3.58-.3.58l.68,1.69-2.28-.52s-.46-.15-.93.13c-.42.26-.25.64-.24.65l2.14,4.79v-.11c-.02-1.27,1.54-2.69,1.56-2.71l.04-.03h-.06c-.43.06-.83.29-.93.35l-.66-1.63,2.45.5h0c.27-.25.54-.49.87-.7h0s-.54-1.52-.54-1.52l2.63.64c-2.65,1.41-3.94,2.89-4.56,3.9-.68,1.1-.69,1.87-.69,1.87v.1s.04-.09.04-.09c.78-1.6,3.11-3.25,4.88-4.33,1.88-1.15,3.56-1.92,3.58-1.93l.04-.02-6.81-1.7Z"/>
</svg>