<?xml version="1.0" encoding="UTF-8"?>
<svg id="Capa_1" data-name="Capa 1" xmlns="http://www.w3.org/2000/svg" viewBox="0 0 60 60">
  <defs>
    <style>
      .cls-1 {
        fill: #fff;
      }
    </style>
  </defs>
  <path class="cls-1" d="M44.59,42.02h-2.54c-.44,0-.85-.25-1.04-.66l-1.03-2.13h-19.68l-1.03,2.13c-.19.4-.6.66-1.04.66h-2.83c-.64,0-1.16-.52-1.16-1.16v-23.89c0-.64.52-1.16,1.16-1.16h21.96c.31,0,.6.12.82.34l7.22,7.22c.22.22.34.51.34.82v16.67c0,.64-.52,1.16-1.16,1.16ZM42.78,39.7h.65v-15.03l-6.55-6.54h-20.32v21.57h.94l1.03-2.13c.19-.4.6-.66,1.04-.66h21.13c.44,0,.85.25,1.04.66l1.03,2.13Z"/>
  <path class="cls-1" d="M21.85,44.19c-.64,0-1.16-.52-1.16-1.16v-4.62c0-.64.52-1.16,1.16-1.16s1.16.52,1.16,1.16v4.62c0,.64-.52,1.16-1.16,1.16Z"/>
  <path class="cls-1" d="M27.22,44.19c-.64,0-1.16-.52-1.16-1.16v-4.62c0-.64.52-1.16,1.16-1.16s1.16.52,1.16,1.16v4.62c0,.64-.52,1.16-1.16,1.16Z"/>
  <path class="cls-1" d="M32.98,44.19c-.64,0-1.16-.52-1.16-1.16v-4.62c0-.64.52-1.16,1.16-1.16s1.16.52,1.16,1.16v4.62c0,.64-.52,1.16-1.16,1.16Z"/>
  <path class="cls-1" d="M38.25,44.19c-.64,0-1.16-.52-1.16-1.16v-4.62c0-.64.52-1.16,1.16-1.16s1.16.52,1.16,1.16v4.62c0,.64-.52,1.16-1.16,1.16Z"/>
  <path class="cls-1" d="M24.92,33.01h-4.61c-.64,0-1.16-.52-1.16-1.16s.52-1.16,1.16-1.16h4.61c.64,0,1.16.52,1.16,1.16s-.52,1.16-1.16,1.16Z"/>
  <path class="cls-1" d="M40.15,33.01h-4.61c-.64,0-1.16-.52-1.16-1.16s.52-1.16,1.16-1.16h4.61c.64,0,1.16.52,1.16,1.16s-.52,1.16-1.16,1.16Z"/>
  <path class="cls-1" d="M37.84,35.32c-.64,0-1.16-.52-1.16-1.16v-4.61c0-.64.52-1.16,1.16-1.16s1.16.52,1.16,1.16v4.61c0,.64-.52,1.16-1.16,1.16Z"/>
</svg>