<?xml version="1.0" encoding="UTF-8"?>
<svg id="Capa_1" data-name="Capa 1" xmlns="http://www.w3.org/2000/svg" viewBox="0 0 60 60">
  <defs>
    <style>
      .cls-1 {
        fill: #fff;
      }
    </style>
  </defs>
  <path class="cls-1" d="M25.6,17.26c.82-.14,1.22.05,1.83.56.68.56,2.3,2.15,2.81,2.83.69.91.6,1.75-.09,2.62-2.05,2.58-5.38,4.91-7.49,7.49-1.68,2.05-1.7,5.22.39,7.01,5.34,4.57,10.59-4.85,14.25-7.64.88-.67,1.71-.56,2.53.1.64.51,2.32,2.18,2.82,2.82.67.87.76,1.77,0,2.63-3.51,2.94-6.82,8.02-11.03,9.89-12.74,5.67-24.11-9.79-14.08-20.69,1.93-2.09,4.82-5.17,6.96-6.96.31-.26.69-.58,1.1-.65ZM25.98,19.1l-3.47,3.54,2.78,2.78,3.54-3.47-2.85-2.85ZM21.12,23.96c-2.19,2.09-4.34,4.05-5.19,7.07-2.35,8.36,5.32,15.85,13.63,13.34,2.96-.89,4.8-2.97,6.86-5.11l-2.77-2.85c-1.75,1.71-3.28,3.67-5.8,4.21-5.95,1.29-10.29-4.76-7.3-10.02.84-1.48,2.3-2.52,3.41-3.79l-2.85-2.85ZM38.52,31.54l-3.54,3.56,2.77,2.76,3.54-3.47-2.77-2.85Z"/>
  <path class="cls-1" d="M38.15,15.6c.54-.09,2.08.67,2.58.97,1.32.8,2.63,2.19,3.35,3.55.38.71,1.35,2.75-.13,2.86-.95.07-.89-.66-1.17-1.27-.86-1.86-2-3.12-3.87-4.01-.53-.25-1.41-.27-1.52-1.01-.07-.49.24-1.01.75-1.09Z"/>
  <path class="cls-1" d="M36.98,19.59c1.38-.17,3.68,2.22,3.81,3.54.08.77-.72,1.31-1.41.92-.36-.2-.7-1.39-1.16-1.86-.48-.49-1.7-.85-1.91-1.21-.31-.55.03-1.32.66-1.4Z"/>
</svg>