<?xml version="1.0" encoding="UTF-8"?>
<svg id="Capa_1" data-name="Capa 1" xmlns="http://www.w3.org/2000/svg" viewBox="0 0 60 60">
  <defs>
    <style>
      .cls-1 {
        fill: #fff;
      }
    </style>
  </defs>
  <path class="cls-1" d="M53.84,29.83c-.04-.57-.35-1.05-.83-1.33l-24.38-14.23c-.64-.37-1.42-.37-2.07-.03l-2.18,1.11c-.5-.32-.95-.56-1.67-.56-1.01,0-1.97.74-1.97,1.52v1.01l-1.39.74-8.91,5.01c-.46-.25-1.12-.36-1.66-.36-.42,0-.82.1-1.16.27-.02,0-.03,0-.04.02-.62.23-1.02.69-1.02,1.23v1.03l-.35.2c-.4.23-.68.65-.74,1.13-.06.49.1.97.44,1.29.02,0,.03.03.05.03l.6.44v3.05c0,.1.03.19.08.27.03.05.35.5,1.12.6l20.84,14.5c.16.11,1.86,1.33,3.54.74.2-.07.38-.13.55-.2l.39.3v.14c0,.17.07.31.2.41.36.25,1,.54,1.78.54.66,0,1.41-.21,2.15-.81.11-.1.18-.24.18-.39v-3.86l4.44-2.71c.05.04.11.08.17.11h0c.16.1.34.13.53.14h.14s.04,0,.06,0c.08,0,.16,0,.24-.02.14,0,.28-.04.43-.1.11-.03.22-.07.33-.11.84-.37,1.73-1.21,1.73-2.05,0-.06,0-.11-.02-.17l3.92-2.38.12.07v.24c.02.17.1.31.24.4,1.74,1.12,3.33.33,3.93-.24.1-.1.16-.23.16-.37v-4.24c-.02-.33-.12-.7-.36-1,.3-.4.44-.91.4-1.4ZM36.38,47.25c-1,.71-1.91.41-2.32.22v-.1c0-.16-.07-.3-.19-.4l-.81-.62c-.14-.1-.33-.13-.5-.07-.22.1-.47.19-.76.29-1.23.44-2.61-.59-2.63-.6t-.02,0l-20.95-14.59c-.07-.05-.16-.08-.25-.09-.21,0-.34-.06-.42-.1v-2.18l21.25,15.41c.61.42,1.44.64,2.28.64.73,0,1.46-.17,2.05-.5.02,0,.03-.02.03-.03l.52-.37s0,0,0,0c.27.15.63.34,1.12.37.09,0,.17,0,.26,0,.5,0,.94-.09,1.31-.25v2.97ZM41.35,40.06l-3.72,2.25c0-.17-.03-.32-.05-.46,0-.03-.02-.08-.03-.11l3.9-2.52c-.09.2-.14.41-.14.61,0,.09.02.17.03.24ZM43.25,40.07c-.06.03-.12.05-.18.07-.08.03-.16.04-.22.05-.16.02-.25,0-.28-.02h0s0,0,0,0c-.06-.03-.12-.09-.17-.16-.03-.05-.05-.1-.07-.13,0-.03,0-.05,0-.06,0-.25.44-.82,1.13-1.12.26-.11.47-.15.6-.15.08,0,.13,0,.15.03.02.02.05.05.08.09,0,.07.03.13.08.19,0,.02.02.03.02.03,0,.02,0,.03.02.04,0,0,0,0,0,.02,0,.26-.44.83-1.14,1.13ZM52.8,36.23c-.35.24-1.23.71-2.33.12l-.02-.24c0-.17-.1-.31-.23-.4l-.6-.36c-.16-.1-.37-.1-.52,0l-4.17,2.54s-.03-.03-.03-.03c0,0-.02-.02-.03-.02-.21-.19-.49-.3-.83-.3l6.05-3.92c.51.17,1.65.43,2.45-.17.1-.08.2-.17.27-.26v3.03ZM52.46,30.84h0c-.13.1-.21.27-.19.45,0,.08.02.16.02.24.02.43-.03.91-.34,1.14-.47.35-1.43.08-1.72-.04-.16-.06-.32-.05-.46.04l-13.14,8.5c-.14.09-.23.25-.23.42,0,.16.07.3.19.39.09.16.09.71,0,.86-.24.37-.63.76-1.71.7-.27-.02-.47-.13-.69-.24-.09-.05-.18-.1-.28-.14-.17-.1-.37-.1-.54.02l-.75.51c-.91.51-2.43.47-3.24-.1L6.64,27.11c-.09-.1-.14-.25-.11-.42.02-.17.1-.31.24-.39l1.07-.63c.13-.08.22-.22.24-.37.02-.16-.03-.3-.15-.42-.37-.37-.37-.39-.37-.57,0-.09.16-.28.44-.42t.02,0c.18-.07.41-.11.69-.11.54,0,.94.17,1.1.35.16.17.41.21.61.1l.16-.09h0s.05-.02.08-.03l9.24-5.2s.07-.04.1-.08h.02s1.45-.77,1.45-.77c.17-.09.26-.25.26-.44v-1.31c0-.13.41-.53.97-.53.51,0,.78.18,1.32.53l.04.03c.15.1.34.1.5.03l2.45-1.24c.36-.18.77-.18,1.11,0l23.27,13.58,1.11.64c.25.16.33.39.34.57.03.33-.12.69-.38.92Z"/>
  <path class="cls-1" d="M50.45,29.09c-.09-.05-.18-.1-.29-.17l-13.99-8.35-8.13-4.62c-.44-.24-.98-.25-1.42,0l-18.07,9.98c-.3.17-.67.43-.72.85-.05.45.29.77.4.88.02.02.03.03.06.04l21.08,14.68s.02,0,.03.02c.5.3,1,.45,1.5.45.47,0,.94-.14,1.38-.43l15.79-9.76,1.14-.73c.13-.08.22-.21.24-.36.03-.34.11-.53.24-.58.03-.02.06-.03.09-.05.51-.37.91-.24.91-.24.17.07.36.04.5-.07.26-.21.28-.45.27-.58-.03-.42-.42-.64-1.01-.97ZM48.49,31.23l-.95.6-15.79,9.76c-.58.38-1.17.37-1.82-.03l-18.9-13.16,16.55-9.37c.25-.15.56-.15.81,0l20.14,12.01c-.02.07-.03.13-.04.19ZM49.24,30.11c-.05.03-.1.05-.15.09l-20.19-12.03c-.56-.33-1.25-.34-1.81-.02l-16.96,9.61-.23-.16-1-.7s0,0-.02,0c.04-.03.1-.06.17-.1l18.06-9.98c.14-.07.31-.07.44,0l8.12,4.61,13.99,8.35s.07.03.1.05c-.17.07-.35.16-.52.28Z"/>
  <path class="cls-1" d="M51.8,31.76c-.02.36-.34.63-.75.63h-.03c-.17,0-.31-.05-.44-.14-.19-.13-.3-.33-.3-.55.02-.37.36-.64.78-.62.16,0,.31.05.44.13.19.13.3.33.3.55Z"/>
  <path class="cls-1" d="M35.78,42.24c-.02.35-.34.62-.75.62h-.03c-.17,0-.31-.05-.44-.13-.19-.13-.3-.34-.3-.55.02-.37.36-.64.78-.63.16,0,.31.05.44.14.19.12.3.33.3.55Z"/>
  <path class="cls-1" d="M9.68,24.67c-.02.36-.34.62-.74.62h-.04c-.16,0-.3-.05-.44-.13-.19-.13-.3-.33-.29-.55,0-.17.08-.31.2-.43.14-.13.35-.21.57-.2.43.02.75.32.73.69Z"/>
  <path class="cls-1" d="M23.49,33.45c0,.42-.39.73-.91.73s-.91-.31-.91-.73.39-.72.91-.72.91.31.91.72Z"/>
  <path class="cls-1" d="M33.3,33.66c0,.41-.39.73-.91.73s-.91-.32-.91-.73.39-.73.91-.73.91.31.91.73Z"/>
  <path class="cls-1" d="M36.62,31.59c0,.42-.39.73-.91.73s-.91-.31-.91-.73.39-.73.91-.73.91.31.91.73Z"/>
  <path class="cls-1" d="M36.72,36.03c0,.42-.39.73-.91.73s-.91-.31-.91-.73.39-.73.91-.73.91.31.91.73Z"/>
  <path class="cls-1" d="M40.16,34.1c0,.42-.39.73-.91.73s-.91-.31-.91-.73.39-.73.91-.73.91.31.91.73Z"/>
  <path class="cls-1" d="M34.17,24.87c0,.42-.38.73-.9.73s-.91-.31-.91-.73.38-.73.91-.73.9.31.9.73Z"/>
  <path class="cls-1" d="M29.27,21.84c0,.42-.39.73-.91.73s-.91-.31-.91-.73.39-.73.91-.73.91.31.91.73Z"/>
  <path class="cls-1" d="M37.79,27.17c0,.41-.39.72-.91.72s-.91-.31-.91-.72.39-.73.91-.73.91.31.91.73Z"/>
  <path class="cls-1" d="M17.3,28.99c0,.42-.39.73-.91.73s-.91-.31-.91-.73.39-.73.91-.73.91.31.91.73Z"/>
  <path class="cls-1" d="M42.67,41.18h-.07s.09,0,.13,0c-.02,0-.03,0-.06,0Z"/>
  <g>
    <path class="cls-1" d="M52.45,30.84h-.02c-.16.1-.24.28-.23.46,0,.08.03.15.07.22,0-.08,0-.16-.02-.24-.02-.18.06-.35.19-.44Z"/>
    <path class="cls-1" d="M23.67,16.78c-.02.36-.34.63-.74.63h-.04c-.16,0-.3-.05-.44-.14-.19-.12-.3-.33-.29-.55,0-.37.35-.64.77-.62.17,0,.31.05.44.13.19.13.3.34.3.55Z"/>
  </g>
</svg>