<?xml version="1.0" encoding="UTF-8"?>
<svg id="Capa_1" data-name="Capa 1" xmlns="http://www.w3.org/2000/svg" viewBox="0 0 60 60">
  <defs>
    <style>
      .cls-1 {
        fill: #fff;
      }
    </style>
  </defs>
  <g>
    <path class="cls-1" d="M18.85,48.3l-.83.83c-.5.5-1.31.5-1.81,0l-6.38-6.38c-.5-.5-.5-1.31,0-1.81l.83-.83,8.2,8.2ZM9.92,41.02c-.45.45-.45,1.18,0,1.62l6.38,6.38c.45.45,1.18.45,1.62,0l.73-.73-8.01-8.01-.73.73Z"/>
    <path class="cls-1" d="M17.12,50.03c-.46,0-.93-.18-1.28-.53l-6.38-6.38c-.71-.7-.71-1.85,0-2.56l.83-.83c.21-.2.54-.2.74,0l8.2,8.2c.1.1.15.23.15.37s-.06.27-.15.37l-.83.83c-.35.35-.82.53-1.28.53ZM10.65,41.04l-.36.36c-.24.24-.24.64,0,.88l6.38,6.38c.12.12.27.18.44.18s.32-.06.44-.18l.36-.36-7.26-7.27Z"/>
  </g>
  <g>
    <path class="cls-1" d="M18.84,35.4l-5.97,5.97c-.31.31-.83.31-1.14,0l-1.03-1.03c-.31-.31-.31-.83,0-1.14l5.97-5.97,2.17,2.17ZM10.79,39.29c-.26.26-.26.69,0,.95l1.03,1.03c.26.26.69.26.95,0l5.88-5.88-1.98-1.98-5.88,5.88Z"/>
    <path class="cls-1" d="M12.3,42.13h0c-.36,0-.69-.14-.94-.39l-1.03-1.03c-.25-.25-.39-.59-.39-.94s.14-.69.39-.94l5.97-5.97c.21-.21.54-.21.74,0l2.17,2.17c.1.1.15.23.15.37s-.06.27-.15.37l-5.97,5.97c-.25.25-.59.39-.94.39ZM16.67,34.16l-5.5,5.5c-.06.06-.06.15,0,.21l1.03,1.03c.06.06.15.06.21,0l5.5-5.5-1.24-1.24Z"/>
  </g>
  <g>
    <path class="cls-1" d="M25.87,42.43l-5.97,5.97c-.31.31-.83.31-1.14,0l-1.03-1.03c-.31-.31-.31-.82,0-1.14l5.97-5.97,2.17,2.17ZM17.82,46.32c-.26.26-.26.69,0,.95l1.03,1.03c.26.26.69.26.95,0l5.88-5.88-1.98-1.98-5.88,5.88Z"/>
    <path class="cls-1" d="M19.33,49.16h0c-.36,0-.69-.14-.94-.39l-1.03-1.03c-.52-.52-.52-1.36,0-1.88l5.97-5.97c.2-.2.55-.2.74,0l2.17,2.17c.1.1.15.23.15.37s-.06.27-.15.37l-5.97,5.97c-.25.25-.59.39-.94.39ZM23.7,41.19l-5.5,5.5s-.04.08-.04.1,0,.07.04.1l1.03,1.03c.06.06.15.06.21,0l5.5-5.5-1.24-1.24Z"/>
  </g>
  <g>
    <path class="cls-1" d="M23.38,39.94l-5.97,5.97c-.31.31-.83.31-1.14,0l-3.01-3.01c-.31-.31-.31-.83,0-1.14l5.97-5.97,4.15,4.15ZM13.36,41.86c-.26.26-.26.69,0,.95l3.01,3.01c.26.26.69.26.95,0l5.88-5.88-3.96-3.96-5.88,5.88Z"/>
    <path class="cls-1" d="M16.84,46.67c-.34,0-.68-.13-.94-.39l-3.01-3.01c-.52-.52-.52-1.36,0-1.88l5.97-5.97c.2-.21.54-.21.74,0l4.15,4.15c.21.2.21.54,0,.74l-5.97,5.97c-.26.26-.6.39-.94.39ZM19.24,36.73l-5.5,5.5c-.06.06-.06.15,0,.21l3.01,3.01s.08.04.1.04.07,0,.1-.04l5.5-5.5-3.21-3.21Z"/>
  </g>
  <g>
    <polygon class="cls-1" points="23.43 39.99 23.33 40.08 18.03 33.75 18.13 33.67 23.43 39.99"/>
    <path class="cls-1" d="M23.33,40.6s-.03,0-.05,0c-.14-.01-.27-.08-.36-.19l-5.3-6.32c-.19-.22-.16-.55.06-.74l.1-.09c.11-.09.24-.13.38-.12.14.01.27.08.36.19l5.3,6.32c.19.22.16.55-.06.74l-.1.09c-.09.08-.21.12-.34.12Z"/>
  </g>
  <g>
    <rect class="cls-1" x="21.95" y="31.86" width=".14" height="10.47" transform="translate(-18.54 22.41) rotate(-39.4)"/>
    <path class="cls-1" d="M25.29,41.71c-.15,0-.3-.07-.41-.19l-6.65-8.08c-.18-.22-.15-.55.07-.74l.1-.09c.11-.09.25-.13.38-.12.14.01.27.08.35.19l6.65,8.08c.09.11.13.25.12.38-.01.14-.08.27-.19.35l-.1.09c-.1.08-.22.12-.33.12Z"/>
  </g>
  <g>
    <polygon class="cls-1" points="25.97 40.53 25.86 40.61 20.43 33.93 20.54 33.85 25.97 40.53"/>
    <path class="cls-1" d="M25.86,41.14s-.04,0-.05,0c-.14-.01-.27-.08-.35-.19l-5.43-6.68c-.18-.22-.15-.56.08-.74l.1-.09c.11-.09.25-.13.39-.12.14.01.27.08.35.19l5.43,6.68c.18.22.15.55-.08.74l-.1.09c-.09.08-.21.12-.33.12Z"/>
  </g>
  <g>
    <path class="cls-1" d="M29.08,38.07l-2.26,2.26-8.12-8.12,2.26-2.26,8.12,8.12ZM26.83,40.13l2.06-2.06-7.93-7.93-2.06,2.06,7.93,7.93Z"/>
    <path class="cls-1" d="M26.83,40.85c-.13,0-.27-.05-.37-.15l-8.12-8.12c-.21-.2-.21-.54,0-.74l2.26-2.26c.21-.21.54-.21.74,0l8.12,8.12c.21.2.21.54,0,.74l-2.26,2.26c-.1.1-.24.15-.37.15ZM19.64,32.21l7.18,7.18,1.32-1.32-7.18-7.18-1.32,1.32Z"/>
  </g>
  <g>
    <rect class="cls-1" x="17.61" y="33.72" width="2.3" height=".14" transform="translate(-18.4 23.16) rotate(-45)"/>
    <path class="cls-1" d="M18,35.17c-.14,0-.27-.06-.37-.15l-.1-.1c-.21-.2-.21-.54,0-.74l1.63-1.63c.1-.1.23-.15.37-.15h0c.14,0,.27.06.37.15l.1.1c.2.21.2.54,0,.74l-1.63,1.63c-.1.1-.23.15-.37.15Z"/>
  </g>
  <g>
    <rect class="cls-1" x="24.03" y="40.14" width="2.3" height=".14" transform="translate(-21.05 29.58) rotate(-45)"/>
    <path class="cls-1" d="M24.41,41.59c-.13,0-.27-.05-.37-.15l-.1-.1c-.1-.1-.15-.23-.15-.37s.06-.27.15-.37l1.63-1.63c.21-.2.54-.21.74,0l.1.1c.1.1.15.23.15.37s-.06.27-.15.37l-1.63,1.63c-.1.1-.24.15-.37.15Z"/>
  </g>
  <g>
    <path class="cls-1" d="M40.57,28.82l-2.5,2.52c-.25.25-.65.25-.89,0l-9.51-9.51c-.25-.25-.25-.65,0-.89l2.5-2.52,10.4,10.4ZM27.76,21.03c-.19.19-.19.51,0,.7l9.51,9.51c.19.19.51.19.7,0l2.41-2.42-10.21-10.21-2.41,2.42Z"/>
    <path class="cls-1" d="M37.62,32.04c-.3,0-.59-.11-.82-.34l-9.51-9.51c-.45-.45-.45-1.18,0-1.63l2.5-2.52c.1-.1.23-.15.37-.15h0c.14,0,.27.06.37.15l10.4,10.4c.2.2.21.54,0,.74l-2.5,2.52c-.23.23-.52.34-.82.34ZM28.15,21.38l9.47,9.47,2.01-2.03-9.47-9.47-2.02,2.03Z"/>
  </g>
  <g>
    <path class="cls-1" d="M36.13,30.09l-7.52,7.48-7.25-7.25,7.52-7.48,7.25,7.25ZM28.6,37.38l7.33-7.29-7.06-7.06-7.33,7.29,7.06,7.06Z"/>
    <path class="cls-1" d="M28.6,38.1c-.13,0-.27-.05-.37-.15l-7.25-7.25c-.1-.1-.15-.23-.15-.37s.06-.27.15-.37l7.52-7.48c.21-.2.54-.2.74,0l7.25,7.25c.1.1.15.23.15.37s-.06.27-.15.37l-7.52,7.48c-.1.1-.24.15-.37.15ZM22.29,30.33l6.31,6.32,6.59-6.55-6.31-6.31-6.59,6.55Z"/>
  </g>
  <g>
    <path class="cls-1" d="M48.68,17.55l-2.62,2.61-7.25-7.25,2.62-2.61,7.25,7.25ZM46.06,19.97l2.43-2.42-7.06-7.06-2.43,2.42,7.06,7.06Z"/>
    <path class="cls-1" d="M46.06,20.69c-.13,0-.27-.05-.37-.15l-7.25-7.25c-.1-.1-.15-.23-.15-.37,0-.14.06-.27.15-.37l2.62-2.61c.2-.2.54-.2.74,0l7.25,7.25c.1.1.15.23.15.37,0,.14-.06.27-.15.37l-2.62,2.61c-.1.1-.24.15-.37.15ZM39.75,12.91l6.32,6.31,1.69-1.68-6.32-6.31-1.69,1.68Z"/>
  </g>
  <g>
    <path class="cls-1" d="M45.02,24.38l-4.56,4.56-10.4-10.4,4.56-4.56,10.4,10.4ZM40.46,28.74l4.37-4.37-10.21-10.21-4.37,4.37,10.21,10.21Z"/>
    <path class="cls-1" d="M40.46,29.46c-.14,0-.27-.06-.37-.15l-10.4-10.4c-.1-.1-.15-.23-.15-.37s.06-.27.15-.37l4.56-4.56c.2-.2.54-.2.74,0l10.4,10.4c.21.21.21.54,0,.74l-4.56,4.56c-.1.1-.23.15-.37.15ZM30.99,18.53l9.47,9.47,3.62-3.62-9.47-9.47-3.62,3.62Z"/>
  </g>
  <g>
    <path class="cls-1" d="M47.03,22.37l-1.89,1.89-10.4-10.4,1.89-1.89c.39-.39,1.03-.39,1.43,0l8.98,8.98c.39.39.39,1.03,0,1.43ZM45.14,24.07l1.79-1.8c.34-.34.34-.9,0-1.24l-8.98-8.98c-.34-.34-.9-.34-1.24,0l-1.79,1.8,10.21,10.21Z"/>
    <path class="cls-1" d="M45.14,24.78c-.14,0-.27-.06-.37-.15l-10.4-10.4c-.2-.2-.21-.54,0-.74l1.89-1.89c.6-.6,1.57-.6,2.17,0l8.98,8.98c.29.29.45.68.45,1.09s-.16.8-.45,1.09l-1.89,1.89c-.1.1-.23.15-.37.15h0ZM35.67,13.86l9.47,9.47,1.42-1.42c.14-.14.14-.36,0-.49l-8.98-8.98c-.13-.13-.36-.13-.49,0l-1.42,1.42Z"/>
  </g>
  <g>
    <g>
      <path class="cls-1" d="M44.97,24.38l-4.51,4.51-10.35-10.35,4.51-4.51,10.35,10.35ZM40.46,28.79l4.41-4.41-10.26-10.26-4.41,4.41,10.26,10.26Z"/>
      <path class="cls-1" d="M40.46,29.41c-.14,0-.27-.06-.37-.15l-10.35-10.35c-.21-.21-.21-.54,0-.74l4.51-4.51c.2-.2.55-.2.74,0l10.35,10.35c.1.1.15.23.15.37s-.06.27-.15.37l-4.51,4.51c-.1.1-.23.15-.37.15ZM30.94,18.53l9.52,9.52,3.67-3.67-9.52-9.52-3.67,3.67Z"/>
    </g>
    <g>
      <polygon class="cls-1" points="41.83 27.5 39.09 27.5 39.09 27.43 41.83 27.43 41.83 27.5"/>
      <path class="cls-1" d="M41.83,28.03h-2.75c-.14,0-.27-.06-.37-.15-.1-.1-.15-.23-.15-.37v-.07c0-.29.24-.52.53-.52h2.75c.29,0,.52.23.53.52v.07c0,.14-.05.27-.15.37-.1.1-.23.15-.37.15Z"/>
    </g>
    <g>
      <polygon class="cls-1" points="44 25.33 43.72 25.33 36.92 25.33 36.92 25.26 37.21 25.27 44 25.27 44 25.33"/>
      <path class="cls-1" d="M44,25.86h-.29s-6.8,0-6.8,0c-.14,0-.27-.06-.37-.16-.1-.1-.15-.23-.15-.37v-.07c0-.29.24-.52.53-.52h.3s6.79,0,6.79,0c.14,0,.27.06.37.16.1.1.15.23.15.37v.07c0,.14-.06.27-.16.37-.1.1-.23.15-.37.15Z"/>
    </g>
    <g>
      <polygon class="cls-1" points="43.67 23.16 34.75 23.16 34.75 23.1 43.67 23.1 43.67 23.16"/>
      <path class="cls-1" d="M43.67,23.69h-8.92c-.14,0-.27-.06-.37-.15-.1-.1-.15-.23-.15-.37v-.07c0-.29.24-.52.53-.52h8.92c.29,0,.52.23.53.52v.07c0,.14-.05.27-.15.37s-.23.15-.37.15Z"/>
    </g>
    <g>
      <polygon class="cls-1" points="41.5 20.99 32.58 20.99 32.58 20.93 41.5 20.93 41.5 20.99"/>
      <path class="cls-1" d="M32.58,21.52c-.29,0-.52-.23-.53-.52v-.07c0-.14.05-.27.15-.37.1-.1.23-.15.37-.15h8.92c.29,0,.52.23.53.52v.07c0,.14-.05.27-.15.37s-.23.15-.37.15h-8.92Z"/>
    </g>
    <g>
      <polygon class="cls-1" points="39.33 18.82 30.41 18.82 30.41 18.76 39.33 18.76 39.33 18.82"/>
      <path class="cls-1" d="M39.33,19.35h-8.92c-.14,0-.27-.06-.37-.15s-.15-.23-.15-.37v-.07c0-.29.24-.52.53-.52h8.92c.14,0,.27.06.37.15s.15.23.15.37v.07c0,.29-.24.52-.53.52Z"/>
    </g>
    <g>
      <polygon class="cls-1" points="37.17 16.66 32.07 16.65 32.07 16.59 32.87 16.59 37.17 16.59 37.17 16.66"/>
      <path class="cls-1" d="M37.17,17.18h-5.1c-.14,0-.27-.06-.37-.16-.1-.1-.15-.23-.15-.37v-.07c0-.14.06-.27.15-.37.1-.1.23-.15.37-.15h.81s4.29,0,4.29,0c.14,0,.27.06.37.15s.15.23.15.37v.07c0,.29-.24.52-.53.52Z"/>
    </g>
    <g>
      <polygon class="cls-1" points="35 14.49 34.23 14.49 34.23 14.42 35 14.42 35 14.49"/>
      <path class="cls-1" d="M35,15.01h-.76c-.29,0-.52-.23-.53-.52v-.07c0-.14.05-.27.15-.37s.23-.15.37-.15h.76c.29,0,.52.23.53.52v.07c0,.14-.05.27-.15.37s-.23.15-.37.15Z"/>
    </g>
    <g>
      <polygon class="cls-1" points="44.84 24.5 44.77 24.5 44.77 24.26 44.84 24.26 44.84 24.5"/>
      <path class="cls-1" d="M44.84,25.02h-.07c-.29,0-.52-.24-.52-.53v-.24c0-.14.06-.27.15-.37.1-.1.23-.15.37-.15h.07c.29,0,.52.24.52.53v.24c0,.14-.06.27-.15.37-.1.1-.23.15-.37.15Z"/>
    </g>
    <g>
      <polygon class="cls-1" points="42.67 26.67 42.6 26.67 42.6 22.09 42.67 22.09 42.67 26.67"/>
      <path class="cls-1" d="M42.67,27.19h-.07c-.29,0-.52-.24-.52-.53v-4.58c0-.29.23-.52.52-.53h.07s0,0,0,0c.14,0,.27.06.37.15.1.1.15.23.15.37v4.58c0,.14-.06.27-.15.37-.1.1-.23.15-.37.15Z"/>
    </g>
    <g>
      <polygon class="cls-1" points="40.5 28.84 40.43 28.84 40.43 28.55 40.43 19.92 40.5 19.92 40.5 28.84"/>
      <path class="cls-1" d="M40.43,29.36c-.29,0-.52-.23-.53-.52v-.28s0-8.64,0-8.64c0-.29.23-.52.52-.53h.07s0,0,0,0c.14,0,.27.06.37.15.1.1.15.23.15.37v8.92c0,.29-.23.52-.52.53h-.07s0,0,0,0Z"/>
    </g>
    <g>
      <polygon class="cls-1" points="38.33 26.67 38.26 26.67 38.26 26.38 38.26 17.75 38.33 17.75 38.33 26.67"/>
      <path class="cls-1" d="M38.33,27.2h-.07c-.14,0-.27-.06-.37-.16s-.15-.23-.15-.37v-.29s0-8.63,0-8.63c0-.14.06-.27.15-.37.1-.1.23-.15.37-.15h.07c.29,0,.52.24.52.53v8.92c0,.14-.06.27-.15.37-.1.1-.23.15-.37.15Z"/>
    </g>
    <g>
      <polygon class="cls-1" points="36.16 24.5 36.09 24.5 36.09 15.58 36.16 15.58 36.16 24.5"/>
      <path class="cls-1" d="M36.16,25.03h-.07c-.29,0-.52-.24-.52-.53v-8.92c0-.14.06-.27.15-.37.1-.1.23-.15.37-.15h.07c.29,0,.52.24.52.53v8.92c0,.14-.06.27-.15.37-.1.1-.23.15-.37.15Z"/>
    </g>
    <g>
      <polygon class="cls-1" points="33.99 22.34 33.92 22.34 33.92 14.73 33.99 14.73 33.99 15.54 33.99 22.34"/>
      <path class="cls-1" d="M33.92,22.86c-.14,0-.27-.06-.37-.15-.1-.1-.15-.23-.15-.37v-7.6c0-.29.23-.52.52-.53h.07s0,0,0,0c.29,0,.52.23.53.52v.81s0,6.8,0,6.8c0,.29-.23.52-.52.52h-.07s0,0,0,0Z"/>
    </g>
    <g>
      <polygon class="cls-1" points="31.82 20.17 31.75 20.17 31.75 19.88 31.75 16.9 31.82 16.9 31.82 20.17"/>
      <path class="cls-1" d="M31.75,20.69c-.29,0-.52-.23-.53-.52v-.29s0-2.98,0-2.98c0-.14.06-.27.15-.37.1-.1.23-.15.37-.15h.07c.29,0,.52.24.52.53v3.27c0,.29-.23.52-.52.53h-.07s0,0,0,0ZM31.82,20.17h0,0Z"/>
    </g>
  </g>
  <g>
    <rect class="cls-1" x="18.88" y="35.25" width=".14" height=".69" transform="translate(-19.62 23.82) rotate(-45)"/>
    <path class="cls-1" d="M19.14,36.42c-.13,0-.27-.05-.37-.15l-.49-.49c-.21-.2-.21-.54,0-.74l.1-.1c.21-.21.54-.21.74,0l.49.49c.21.2.21.54,0,.74l-.1.1c-.1.1-.24.15-.37.15Z"/>
  </g>
  <g>
    <rect class="cls-1" x="23.42" y="39.79" width=".14" height=".69" transform="translate(-21.5 28.36) rotate(-45)"/>
    <path class="cls-1" d="M23.68,40.96c-.13,0-.27-.05-.37-.15l-.49-.49c-.21-.2-.21-.54,0-.74l.1-.1c.21-.21.54-.21.74,0l.49.49c.21.2.21.54,0,.74l-.1.1c-.1.1-.24.15-.37.15Z"/>
  </g>
</svg>